<?xml version="1.0" encoding="utf-8"?>
<!-- Generator: Adobe Illustrator 24.0.1, SVG Export Plug-In . SVG Version: 6.00 Build 0)  -->
<svg version="1.1" xmlns="http://www.w3.org/2000/svg" xmlns:xlink="http://www.w3.org/1999/xlink" x="0px" y="0px"
	 viewBox="0 0 401.86 162.15" style="enable-background:new 0 0 401.86 162.15;" xml:space="preserve">
<style type="text/css">
	.st0{fill:#FFFFFF;}
</style>
<g id="BACKGROUND">
</g>
<g id="OBJECTS">
	<g>
		<g>
			<path class="st0" d="M150.6,41.36c-11.16,1.28-22.4,2.35-33.71,3.24l-3.45,24.05l-5.05-23.44c-6.63,0.47-13.28,0.86-19.96,1.18
				c6.41-1.42,12.85-2.81,19.32-4.14L98.66,0H61.41L46.63,68.64L36.79,0H0l24.93,108.97h42.48L80.03,47.1l12.63,61.87h42.48
				l10.18-44.46c-6.73,0.47-13.48,0.87-20.26,1.2c6.97-1.55,13.97-3.05,21.01-4.49L150.6,41.36z M123.28,0l-5.25,36.65L117.83,38
				l-0.32,2.27c11.52-2.31,23.13-4.47,34.83-6.48L160.07,0H123.28z"/>
			<path class="st0" d="M172.38,0v30.49c11.3-1.8,22.7-3.47,34.17-4.99V0H172.38z M172.38,38.63v17.45
				c11.3-2.1,22.69-4.06,34.17-5.89V33.23C195.24,35.25,183.85,37.03,172.38,38.63z M172.38,62.26v23.23
				c11.3-2.33,22.69-4.53,34.17-6.58V58.27C195.23,59.81,183.85,61.13,172.38,62.26z M172.38,88.67v20.3h34.17V85.69
				C195.23,86.89,183.85,87.88,172.38,88.67z"/>
			<path class="st0" d="M221.94,0v23.53c11.31-1.41,22.7-2.69,34.17-3.84V0H221.94z M221.94,30.37v17.46
				c11.31-1.7,22.7-3.26,34.17-4.67V22.97C244.81,25.66,233.42,28.12,221.94,30.37z M221.94,56.06v20.16
				c11.31-1.9,22.7-3.67,34.17-5.31V50.17C244.81,52.34,233.42,54.31,221.94,56.06z M256.11,83.11v-4.03
				c-11.31,1.82-22.7,3.44-34.17,4.85v25.04h67.11V83.11H256.11z"/>
			<path class="st0" d="M345.22,0h-45.4v38.32c4.61-0.46,9.25-0.88,13.9-1.29c-4.61,1.22-9.25,2.4-13.9,3.55v24.73
				c11.31-1.29,22.7-2.46,34.16-3.5V29.86h8.16c15.08,0,25.09,8.46,25.09,24.32S357.22,78.5,342.14,78.5h-8.16V62.9
				c-11.3,2.9-22.69,5.57-34.16,8.01v38.07h45.4c34.79,0,56.64-23.7,56.64-54.79C401.86,22.78,380.01,0,345.22,0z"/>
		</g>
		<path class="st0" d="M133.31,124.12v38.03h135.23v-38.03H133.31z M165.51,154.68h-5.6l-9.37-14.18v14.18h-5.6v-23h5.6l9.37,14.25
			v-14.25h5.6V154.68z M189.81,136.17h-8.48v4.65h7.5v4.32h-7.5v5.04h8.48v4.49h-14.09v-23h14.09V136.17z M225.25,154.68h-6.78
			l-3.67-15.13l-3.8,15.13h-6.78l-5.83-23h5.99l3.31,16.74l4.09-16.74h6.16l3.93,16.74l3.34-16.74h6.03L225.25,154.68z
			 M248.54,154.91c-4.95,0-8.81-2.46-8.98-7.11h5.96c0.16,1.77,1.28,2.62,2.85,2.62c1.64,0,2.69-0.82,2.69-2.16
			c0-4.26-11.5-1.97-11.43-10.12c0-4.36,3.57-6.78,8.39-6.78c5.01,0,8.39,2.49,8.62,6.88h-6.06c-0.1-1.47-1.15-2.36-2.65-2.39
			c-1.34-0.03-2.36,0.65-2.36,2.1c0,4,11.37,2.19,11.37,9.89C256.92,151.7,253.91,154.91,248.54,154.91z"/>
	</g>
</g>
</svg>
